<svg version="1.1" xmlns="http://www.w3.org/2000/svg" x="0" y="0" width="3438.3" height="841.9" viewBox="0 0 3438.3 841.9" enable-background="new 0 0 3438.345 841.89" xml:space="preserve"><defs><rect x="49.2" y="55.3" width="3334.1" height="731.4"/></defs><clipPath><use overflow="visible"/></clipPath><path clip-path="url(#SVGID_2_)" fill="#ffffff" d="M411.7 138h-2.9c-11.6 3.3-23.3-3-36.7 10.2 3 3.3 6.7 5.5 10.5 6.7C392.2 149.4 410.6 152.3 411.7 138M365.3 437.8c10.1 8 24.2 10.6 36.5 9.9 1.8-0.3-6.1-12.6-38-18L365.3 437.8zM497.6 520.8l-37.6-11.1 -9.2-17 -3.9-2.3L432.7 486c-10.1-10.3-18.9-17.5-29.1-19.9l-9.2-0.9 -20.1 8.2c-9.3 0.7-10.8-10.9-10.8-10.9 -0.5-3-0.2-4.2-1-7.6 -2.1-2.8-6.1-4.2-12.8-2.3 2.6-6.2 4.6-13.3 1.3-20 -7.4 0-10.1 8.4-15 12.5 -11.4-3.2-19-2.3-15.8-6 4.4-2.9 2.2-27.7 6.1-26.3 10.8 1.7 29.7-17.6 40.5 0.1 1.8 4.8 4.3 11.8 11.4 8.5 -0.3-5.9 3.5-15.4-3.5-18.8 -5.9-0.3 33.2-26.3 47.4-43.9 7.9-4.7 18.8 9.3 24.3-4.2l-0.9-5.3 -14.9-9.7c-1.4-4.3 19.3-7.4 20.7-3.4 -0.6 6.9 10 19.3 21.6 19.7 -4.4-11.9 5.6-29.1 1.5-34.7l-11.4-14.4 -1-3.4 1.8-9.7c0 0 0.5-6.6-1.4-8.6 -4.9-4.9-12.3 8.1-17.9 7.8 0 0 2.1-15.8-10.5-18.4 -6.5-1.3-13.5-0.3-14.2 7.3 -3.7 15.4-9.4 32.3-23.2 41 5.6-17.9-14.1-24.6-19.5-38.8l0.3-3 15.2-19.2 3.5-0.8 6.2 3.4 3.6 2 11.9 1.4 3.4-2.9c-14.1-14 11.8-21.2 16.6-30.8l12 11.7c6.8 8.3-19.4 10.6-23.2 17.6 0 0 20.5 25.5 40.9 1.5l8.4-8.1c0-8.4-8.2-15.4-13.5-22.8 -6.4-10.6-2.2-23.8-9.8-32.9 -18.1-8.8-24.4-4.4-24.4-4.4s-0.3 0.9-0.3 1.2c-0.6 3.8-2.2 15.5 1.1 19.6 0.1 1.2 0.5 2.2-1 4 -8 9.7-9.7 10.1-11.8 11.4 -18.7-11.3 8.3-23.1 5.7-35.6 -18.2-8.7-23.3 2.1-23.3 2.1 -2.1 3.5 0.9 23.8-2.6 25.4 -17.3 8.1-21-2.1-21.6-5.1 5.1-4.4 16.8-3.7 16.8-12.9 -0.4-7.8 0.8-16.8-6.8-20.5 -9.9 2-21.6-29.3-39.6-19 -1.5 6.2-7.3 12.3-5 19.3l4.4 0.9 15.7-3.3c7.4 4.7-4.2 10-7.5 14.7 -8.6 9.2 7.9 14.3 11.3 20.5 -5.2 3.2-13.1 2.9-18.7 2.9 10.9-18-9.5-24-19.1-36.2 0 0-1.5-1.7-3.4 0.4 -5.1 5.7-19.4 7.2-22.9 3.1l-8.2-10h-5c-12.9 2.6-13.5-6.5-23.9-4.5 -4.7 3.4-6.2 1.6-13.9 6.2 -6.9 3.8-11.1-2.4-11.1-2.4s-12.4 7.6-23.8 17.5c-11.5 9.9-15.5 13.8-24.6 22.9 -5.6 5.7 9.5 19.3 8.9 25.1 -0.7 5.8-19 5.1-26.2 11l-0.1 1.6c16.5-3.3 12.2 7.3 49.6-15.6 6.7-2.6 20.4-6.9 23.9 3 3.5 6.6 6.9 13.4 9.1 20.5 8.8 14.4-9.4 26.2 3.3 40.9 5.7 7.2 2.2 27.8-5.6 34.7 -6.4 13.1 1.3 27.8 4.9 29.4 10.9 15.1 6.7 35.5 17.5 50.5 1.5 1.8 2.6 6.6 6 3.6 0-8.8-6-16.1-3.8-24.9 5.7 12.2 18.7 21 15 35.7 0 0-4.7 5.5 3.7 7.2 8.2 6.2 11.4 17 33.3 14.9 0 0 5 0.3 5.9 3.4 0.8 3.1 15.6 20.7 33.2 21.3 0 0 2.9 1.5 3.5 10.1 0.5 8.6-7 17.7-14.3 23.4 0 0-5.2 5.5 18.5 36.8 6.8 2.9 15.3 2.9 20.2 8.8 5 5.7-9.1 17.1-10.1 26.5 -0.3 4 6.7 9.3 6.3 13.3 -0.3 3.6-1.1 6.7-2.3 11.9 -2.8 12.8-1.8 31.3-2.2 34.8 -0.3 2.8-3.5 8.3-0.8 8.3 11.6 2 1.5 10.6 0.8 16.1 1.9 13.2 7.9 22.7 18.6 32.3l5.6-6c1.9-2.6-1.1-5-5.6-7.9 0.4-6.3 9-12.1 3-18.3 6.8-12.5 6.4-36.3 27.7-34.4 0.5-6.3-6.4-10.6-6-16.2 0 0 10.2 12.1 27.7-9 2.6-3.2 1-15.7 1-15.7 1.2-9.3 26.9-18.1 26.9-18.1 9.3-4.9 25-45.2 15.3-54.8L497.6 520.8zM412.1 178c2.9 9.5 31.8 11.4 42.3 14.3l3.7-3.7c-11.3-14.6-24.6-20.2-43.9-25.2 0 0-1.3-0.3-1.7-0.4C411.2 164.3 410 168.9 412.1 178M375.4 170.5l1.8 2.4c0.6 1.2 1.4 2.2 2.2 2.8l0.1 0.2c5.5 4.4 14.1-2.2 21.7-1.3 6.4-3.2 4.8-17.1 2.2-17.6 -12.4-1.7-14.5-3.8-32.9 4.4C370.5 161.4 369 165.6 375.4 170.5M562.7 177.8c-6.9-13.7-14.2 2.3-20.3-2.7l-9-34.6 -23.8 5.8c-10.9 9-25.3-3.2-25.3-3.2 -0.9-0.4-8.1-20.9-8.3-24.2 -11.2 6.4-26.9 25.8-31.4 35.2 -6-7.3-10.8-19.1-23.2-13.2v1.5c7.5 5.9 10.1 26.4 22.5 17.6 4.1 1.8 7.9 4.7 10.4 8.1 -2.3 1.9-6.7 1.4-8.2 3.7l18 17.6c13.9-5 9.7-17.6 15.7-25.7 8.6-1 16.9-4 25.5-2.9 3.7 1.5 8.3 5.8 6.8 9.6l-17.3-0.8c-4.1 3.3-1.5 10.3-2.2 14 3.4 4-4.1 11.7 3.8 11.7 21.3 2.9 14 27.6 13 31.1 -5 10.8-8.9 25.5-10.7 38.5 0 0 0.7 21.4 2.2 31.5 0 0 10 3.7 20.1-7.4l4.4-5c3.3-3.4 7.7-9.3 11.5-17 3.9-5.4 8-6.8 9.8-7 22.4 6.8 21.6-7.6 31.7-11.6 3 0.5 2-10.3 1-14.2 -0.7-2.6 2.6-5.4 4.9-7 13.3-7.1 16.7-11.5 10.5-25.7C588.6 194.3 569 192.8 562.7 177.8M991.2 544.1c0.3 9.5-3.8 19.8-1.5 27 3 1.9 7.5 5.5 11.2 4.4l13.4-37.2 -6-5.9C999.7 530.3 1000.9 545.3 991.2 544.1M1061.2 470h2.2c7.5-1.8 4.1-10.2 6-15.3 -1.4-2.2-4-1.9-6-2.9C1061.6 457.2 1060.9 464.6 1061.2 470M818.6 326.1c1.5 0.4 6.4-2.2 8-2.8 3-1.1 2.8 0.4 2.8 0.4l-3.9 9.7 12.1-5.2c0 0 4-1.3 5.9-3.2 1.9-1.8 1.9-3.2 2.1-5.1 -6.7-5.8-10.8-11.6-12.3-19.7 -2.7-7.6-8.2-6.1-10.2 0.9 -1.3 3.8 3.7 6.6 5 12.1 -0.5-1.1-1.4-2.2-3-3 -1.7-0.6-3.4-0.9-5.1 0.7 -2.1 3.7-5.5 8.9-4.7 11.6C816 324.3 817 325.7 818.6 326.1M808.4 261.5l-1.5-3.6c-10.8-0.7-19.4 4-29.8 4.4 1.1 4.4 5.6 7.6 8.2 11.6 8.5-0.7 17.5-1.1 23.8-5.1C808.4 266.6 806.6 263.7 808.4 261.5M974 219.1c-0.4-2.6-2.6-4.4-3.7-6.6 -7.5-16 8.9-24.4 15.7-35.8 -1.1-3.2-3.4-5.5-6.7-6.5 -5.6 4.8-14.5 8.8-15.6 16.8 1.1 10.6-4.5 21.2-6.7 30.7C962.8 220.2 968 219.1 974 219.1M1130.5 459c0.2 0.1 2.6 4.4 4.7 10.6 3.4 7.8 6 3.2 6-3.5 -0.7-8.8-9.9-8.9-8.4-17.7l10.4 6.6c4.1-4 6.4-8.8 9.7-13.1 1.1-9.5-4.5-16.5-6.8-24.8 5.1-3.1 12-3.5 18-4.7 6.1-1.2 11.4-3.1 17.1-5.5 0 0 6.3-9 7.6-12.9 1.3-3.8 2.1-16.3 2.1-16.3 -0.1-0.7-1.3-4.5-1.6-5.1 0-0.1 0-0.1 0-0.1v0c-4.8-11.6-15-19.1-11.2-29.7 8.6-2.5 7.7-0.1 14.3 3.5 1.7 2.1 8.7 8.1 6.2 18.5 1.4 4.6 2.2 2.9 3.4 4.1 0 0 6.6-8 6.6-13.2 0-5.1-10.2-17.4-10.2-17.4 5.7-3.4 7.8-8.1 8.7-13.1 1.4-7.7 0.1-16.3 5.5-22.7 4.4 5.1 5.6 20.9 15.6 13.9 -7.5-14.9-9.9-33.1-16.9-40.5l-0.6-0.6h0c-3.6-3.5-8.6-5.7-16-5.6 0.4-7.7 1.9-14.6 4.5-21.2 9.7-4.9-14.2-13-5.3-20.4 -0.5-0.6-1-1.1-1.5-1.6h-11.9c-20.7-24.4 6.2-40.9-24.5-56.6 -4.8 5.5-8.2-3.9-15.7-1.3 -9.4 1.3-13.8-12.2-15-17.6l-18.1-6.8c-3.1-0.3-22.3-5.1-30.4-5.8 -13.4-1.9-17.6 23-30.5 22.5 -20.1 1.4-9.7 25.5-23.1 35l-18.7 1.5 -5.9 24.8 -16.4-3.7 -1.5 11c-10.5-2.6-13.8 8-21.6 11.7 -3.4-2.2-2.6-7.6-7.5-7.3 -1.4 11.3-7.1 20.9-18.6 24.9 -1.1-2.6-4.9-1.8-4.5-5.1l8.2-7.3c-7.1-12.7-21.3-18.3-35.1-19.7 -18.3 15.4-30.2 30.3-41.8 48.9 -1.2 7.5-4.1 15.1-3 22.7h12.7c4.1 2.9 4.1 8.3 9.7 9.5 12.3 3.3 7.1-10.6 10.5-16.1 -3.5-5.3-2.9-10.6-0.6-15.7v-0.1c2.8-6.3 8.1-12.3 11-17.8 -0.3 5.9-2.7 11.8-4.1 17.9v0c-0.6 2.2-1 4.5-1.1 7 6 1.8 12.4 2.5 19.5 2.1 1.7-0.2 2.9 1.1 2.9 2.2 -14.5-1.8-17.1 15-23.9 23.4l-20.9 2.9c-4.1-1.8-4.8-9.1-9.7-8.7l-1.5 12.3c-3.5 1.7-6.6 4.4-9.7 7.2h0c-4.2 3.9-9.5 8.5-14.9 8.9 -2.6 1.9-6.4 5.5-9 7.3 1.5 4.8 9 5.5 12 9.5 1.5 13.1-12.8 7.8-20.6 10l-0.3 1.8v11.4 1.3 9.8l24.7 0.8c0.8-3.5 1.7-7.1 2.9-10.5 1.8-5 4-9.8 6.8-14.3l16.5-3c5 5.2 15.1 9.3 17 16.4 0.2 1.3 0.5 3.4 0.1 4.8 3.6-0.5 6.6-2.2 9.4-4 1.4-0.9 2.7-1.7 4.1-2.5 -3-9.9-14.9-12.8-15.7-22.8 9.2 7.8 18.4 14.7 23 24.9 0.5 1.3 1.3 3.2 1.6 4.4 3 0.4 6.3-0.8 8.2-1.5l-0.7-2.5 -2.2-8.4c2.2-2.2 5.5-1.8 8.1-3l4.4 11.4 2.3 6.2 17.9 1.4c8.2-1.8 6.3 8.5 6 12.4 -16.1 13.5-29.5-10.2-47.8-0.7 -0.3 2.6 0.8 6.6-0.8 8 -7.8-3.6-15.6-9.8-24.5-9.4l-3-11.7c-16.4 1.4-33.9 9.1-50.7 7.3 -17.2 11.6-24 12.3-30.6 30.6l-1.9 32.3 16.7 28.8 29.2 11.3 16.3-6.5c6.7 7.7 32.6-0.4 21.7 17.6 -6.1 4.5 20.8 40.6 14.2 62 10.1 13.1 13 28.8 18.9 42.7l34.3-6.7c3.8-9.4 9.4-19.6 19.1-28.1 -4.1-14.3 9-21.1 16.4-30.6 4.9-11.8-5.9-19.7-2.2-30.7 9.4-17.5 42.6-40.6 32.1-51.1h-4.7c-6.8-2.6-16.9-1.6-22.6-0.8 -9.6-18.7-35.4-34.5-30.9-52.6 12.3 15 23.3 29.8 32.5 45.2 0.8 1.4 1.7 2.9 2.5 4.4 1.6-0.6 27.2-9.3 44.1-29.9l-9.8-10.2 -16.3 4.3c-4.9-5.4-8.6-12.1-9.7-18.3 11.9 5.2 22.7 12.8 36.5 13.2 2.4 3.4 4.6 14.2 6.6 17.8 1.5 2.7 3.9 0.6 5.3 3.3 1.4 2.7 5.6 15.7 6.9 18 2.5 4.8 6.1 3.5 8.6 2.6 3.6-9.6 7.3-18.8 12.8-27.1 2.4-3.4 3.7-5.8 10.3-7.7 4.1 0.8 3.6-8 7-10.5 1.8-0.7 5.3-1.8 6.7 0.7 7.1 6.2 5.1 7.2 8.3 16.8 3 0.7 4.6 6.8 10.4 4.4l10 16.6C1126.1 452.5 1127.6 453.8 1130.5 459M1215.7 565.2c1.1-2.6 0.2-4.7 0-7.2 -0.2-2.4 0.4-5.3-0.2-7.7 -0.5-2.4-1.5-3.2-1.9-5.8 -0.5-2.3 0.1-5-0.1-7.3 -0.7 0.2-1.6-0.2-2.2-0.1 -0.4-4 0.4-10.3-1.7-13.8 -4.7 0.5 0.3-14.8-1.5-17.5 -0.8-0.2-2.8 2.8-3.6 5.9 -1.2 2.2-2.8 6.2-3.6 9.3 -0.8 3.4-3.8 8.3-4 8.6 -1.3-0.1-6.2-4.5-5.2-8.4 0.5-2.1 3.2-7 0.8-9.1 -4.1-3.6-13.7 2.3-15.3 6 1.5 1.5 1.8 3.7 2.2 5.6 -2.7 0.3-7.7-0.2-9.1-1.9 -4.3 3.1-4.5 4.1-8.7 7.4 -2.2 1.8-4.2 4-6.7 5 -2.5 1-4.7 0.8-7.1 2.1 -6.6 3.7-4.8 9.5-5.1 14.4 -0.5 4.9-3 11.5-4.4 14.4 -1.2 2.8-2.2 5.3 0.8 7.8 3.3 2.9 14-4.6 19-7.1 2.7-1.4 5.9-2.1 8.6-2.2 3.4 0 5.1 0.2 6.9 2.2 2.2 2.5 4.3 8.8 4.3 8.8 1.1-0.7 2.3-1.3 3.3-1.8 0.2 5.1-1.4 11.5 3.8 14 4.1 2.1 10.8 1.1 15.5 0.9 0.4-3-0.1-4.9 1.5-7.6 1-1.9 2.9-3.4 4.2-4.8C1209.2 572 1213.9 569.4 1215.7 565.2M1217 595.5c-4 1.9-10.6 1.2-12.1 6.7 3.4 4.8 4.7-2.3 10.2-2.7l5.3-0.7c0.5-1.6 5.9-7.6 4.9-10.7C1222.8 588.7 1217.3 590.4 1217 595.5M1233.6 581c-0.4-1.2 0.2-7.1-2.5-6.3 -2.9 0.8 0.7 8.1-4 8.3 -1.4 0.5-7 1.1-1.9 2.5 5.1 1.5 4.2 6.4 6.9 4.1 4.5-3.8 7.2-2.4 6.2-5.8C1236.9 583 1234.4 581.6 1233.6 581M1123.1 466.3c0 0 0 0 0 0 0-0.1 0-0.2 0-0.4V466.3zM1143.2 495c1.8 1.2 2.5 1.5 4.9 1.7 1.5 0.1 18.2 2.1 18.7 0.6 -11.2-0.2-20.4-5.6-21.9-6.2 -0.3-3.4-0.9-5-2.6-8 -0.2-0.4-5.4-6.3-6.4-7.3 -3.9-3.7-4.6-5.1-6.2-7.3 -1.2-1.7-5.9-7.7-6.5-2.1 -0.1 4.2 3.6 6.1 7.6 12.7C1131.9 480.5 1141.5 493.8 1143.2 495M1166.8 465.7c-1.3-1.1-3.8 0.5-5.3 1.5 -6.7 5.6-8.3 7.3-8.3 7.3 -3.4 2.3-1.7 4.6-1.5 7.5 0.5 6.2 0.3 9 10.2 7.5 0-5.9 3.5-12.5 6.7-15.8C1164.7 470.4 1169 468.2 1166.8 465.7M1190.2 488.6c0.5 1 5 1.6 5.3 2.7 2 6.2 1.2 14.4 5.9 13.4 0.7-1.2 1.9-2.3 1.8-3.2 6.5-1.2 10 8.4 15.6 6.7 -0.2-2.7-2.9-5.2-3.9-7.6 -1.2-3.1-1.9-4.4-4.1-7.1 -1.5-1.8-7.8-3.1-10-4.2 -2.1-1.1-0.3-3.7-2.6-4.8l-5.2 1C1193 486.8 1189.4 487 1190.2 488.6M1176.3 479.4c0.4-1.4-1.4-1.8-2.5-3.2 -2.2 0.3-2.2 1.3-3.6 2 0 0 0 0.6-0.8 2.1 -1.2 2.2-3.2 2-2.8 6.9 0.3 2.7 2.1 3.8 4.3 4.9 0 0 1.8-1.9 1.6-4.8 -1.1-2.2-1.6-5.1-1.2-6.4C1174.1 478.9 1174.8 480.2 1176.3 479.4M1184.1 444.4c0.7-1.4-0.7-5.4-0.7-5.4s-5.6-14.8-7.1-15.4c-1.4-0.7-4.3 0.2-4.5 1.8 -0.2 1.4 3.3 10.3 3.3 10.3s-0.3 6.4 0.9 7.5c1.1 1.1 5.6 5.1 5.6 5.1S1183.4 445.8 1184.1 444.4M1183.4 465.3c0 0 2.3-2.1 3.2-3.4 1-1.2 2.5-5.8 2.5-5.8s-1.1-6.7-5.2-4.4c-4.1 2.4-5.9 6.2-5 7.5C1179.8 460.5 1183.4 465.3 1183.4 465.3M1183.6 591.9c-2.6 1.5-3.7 3.9-3.1 4.6 0.5 0.7 2.8 3.7 2.8 3.7s1.4-1.3 2-2c0.6-0.8 1.6-3.7 1.6-3.7S1186.1 590.4 1183.6 591.9M1239.8 330.7c-1.4-2.5-3.8-4-5.6-6 -0.1 0.1-0.2 0.3-0.3 0.5 -0.8 1.5-2.4 4.3-2.5 6 -0.1 2.6 2.4 3 2.7 5 0.9 4.5-7.4 10.2-11 12.7 -6 4.1-7.1 3.3-7.9 11 -0.3 2.8-2.5 15.6 5.2 9.9 5.3-3.9 1.1-10.1 2.1-14.3l3.6-2.7c4-1 5.7 2 5.1 5.4 1.1 0 2.7-0.2 3.8-0.8 1.8-0.8 5.6-8.6 6.4-10.5C1242.9 342 1242.4 335 1239.8 330.7"/><polygon clip-path="url(#SVGID_2_)" fill="#ffffff" points="2776.3 143.6 2619.2 575.7 2499.7 144 2377.1 144 2396.7 211.9 2264.9 575.7 2145.5 144 2022.8 144 2191.6 720.9 2272.1 720.9 2425.3 309 2545.8 720.9 2626.4 720.9 2846.6 143.6 "/><path clip-path="url(#SVGID_2_)" fill="#ffffff" d="M3078.9 142.5c-41.5 12.1-78 31.2-109.3 57.5 -31.3 26-56.4 60-75.2 101.8 -18.6 41.7-28.1 92.7-28.1 153.1 0 41.1 7.2 79 21.6 114.1 14.4 35.3 35.2 65.4 62.5 91 27.3 25.6 60.7 45.4 100.3 59.5 39.4 14.1 84.4 21.3 135 21.3 70.4 0 128.7-11.5 174.9-34.4l17.7-68.6 -4.4-2.6c-8.9 9-19.2 17.4-31 24.9 -12.8 8.4-26.4 15.4-40.8 21.1 -14.5 5.8-29.1 10.2-44 13.5 -15.1 3.3-29.8 5-44.3 5 -25.9 0-51.6-4.9-77.1-14.5 -25.7-9.6-48.7-24.9-68.9-45.6 -20.2-21-36.5-47.7-49-80.1 -12.6-32.8-18.7-72.1-18.7-117.8 0-47.4 6-88.2 18.3-122.7 12.2-34.3 28.1-62.7 48.1-84.9 19.7-22.3 42-39 66.4-49.8 24.4-10.9 48.7-16.4 73.1-16.4 81.8-0.3 117.7 42.2 135.3 81.8h14.1l28-85.3c-8.9-5-19.5-9.7-31.9-14.2 -14.2-5.2-29.1-9.7-44.7-13.5 -15.7-3.8-31.9-6.8-48.8-9.1 -16.7-2.4-32.6-3.5-47.6-3.5C3164.4 124.1 3120.6 130.3 3078.9 142.5M1935.8 463l0.4-319.5h-62.7v349.5c-0.1 61.5-25.9 199.8-162.7 199.8 -113.8 0-128.6-109.2-128.6-251.4l0.3-297.9h-118.2l0.2 375.8c0 107.5 71.7 219.9 220.9 219.9 131.5 0 250.4-44.9 250.4-276.2M974.5 55.3c-202 0-365.7 163.7-365.7 365.7 0 60.8 14.9 118 41.1 168.5 10-13.9 18.8-28.9 26.2-44.5 -16-38.3-24.9-80.4-24.9-124.5 0-178.5 144.7-323.2 323.2-323.2 178.5 0 323.2 144.7 323.2 323.2 0 178.5-144.7 323.2-323.2 323.2 -89.8 0-170.9-36.7-229.4-95.8 -8.2 11.9-17 23.3-26.4 34.2 66 64.7 156.2 104.7 255.8 104.7 201.9 0 365.7-163.7 365.7-365.7C1340.1 219 1176.4 55.3 974.5 55.3M739.4 252.4c-9.9 13.8-18.5 28.6-25.9 44 15.9 38.2 24.7 80.1 24.7 124 0 178.5-144.7 323.2-323.2 323.2 -178.5 0-323.2-144.7-323.2-323.2 0-178.5 144.7-323.2 323.2-323.2 90.1 0 171.5 37 230.1 96.5 8-11.6 16.7-22.8 25.9-33.5C604.9 95.3 514.6 55.3 414.9 55.3c-201.9 0-365.7 163.7-365.7 365.7 0 201.9 163.7 365.7 365.7 365.7 202 0 365.7-163.7 365.7-365.7C780.6 360.1 765.6 302.9 739.4 252.4"/></svg>