<svg width="181" height="41" viewBox="0 0 181 41" fill="none" xmlns="http://www.w3.org/2000/svg">
<mask id="mask0_6546_44047" style="mask-type:luminance" maskUnits="userSpaceOnUse" x="0" y="0" width="181" height="41">
<path d="M180.04 0.953857H0.647461V40.0461H180.04V0.953857Z" fill="white"/>
</mask>
<g mask="url(#mask0_6546_44047)">
<path d="M20.151 5.3772H19.9935C19.3688 5.55172 18.7379 5.21706 18.0186 5.92202C18.1788 6.09841 18.3799 6.21553 18.5833 6.27897C19.1044 5.9844 20.0919 6.14032 20.151 5.3772Z" fill="#009482"/>
</g>
<mask id="mask1_6546_44047" style="mask-type:luminance" maskUnits="userSpaceOnUse" x="0" y="0" width="181" height="41">
<path d="M180.04 0.953857H0.647461V40.0461H180.04V0.953857Z" fill="white"/>
</mask>
<g mask="url(#mask1_6546_44047)">
<path d="M17.6544 21.3986C18.1999 21.8285 18.9566 21.9668 19.6207 21.9276C19.7161 21.9123 19.2915 21.256 17.5737 20.968L17.6544 21.3986Z" fill="#009482"/>
</g>
<mask id="mask2_6546_44047" style="mask-type:luminance" maskUnits="userSpaceOnUse" x="0" y="0" width="181" height="41">
<path d="M180.04 0.953857H0.647461V40.0461H180.04V0.953857Z" fill="white"/>
</mask>
<g mask="url(#mask2_6546_44047)">
<path d="M24.7711 25.8361L22.7464 25.2414L22.2528 24.3309L22.0443 24.2098L21.2811 23.9762C20.7365 23.4244 20.2658 23.0411 19.7159 22.9151L19.2193 22.8694L18.1374 23.3078C17.6384 23.346 17.5568 22.7227 17.5568 22.7227C17.5275 22.5643 17.5452 22.4957 17.5035 22.3185C17.3918 22.1707 17.1735 22.0952 16.816 22.1965C16.9547 21.8666 17.0647 21.4834 16.8884 21.1249C16.4879 21.1249 16.3463 21.5738 16.0809 21.792C15.4686 21.6201 15.057 21.6667 15.2287 21.4695C15.464 21.3141 15.3497 19.9865 15.5561 20.0637C16.1391 20.1558 17.1519 19.1248 17.7377 20.0666C17.836 20.3245 17.9694 20.6992 18.3529 20.5204C18.3351 20.2025 18.5395 19.6968 18.1642 19.515C17.8486 19.5004 19.9487 18.1094 20.714 17.1677C21.1387 16.9145 21.7244 17.6671 22.023 16.9431L21.9759 16.6619L21.176 16.1414C21.0992 15.9131 22.2129 15.7442 22.2912 15.9579C22.2581 16.3257 22.8309 16.9908 23.4546 17.0094C23.2158 16.3716 23.7535 15.456 23.5343 15.1538L22.9221 14.3844L22.8693 14.2029L22.9643 13.686C22.9643 13.686 22.9931 13.331 22.8884 13.2267C22.6266 12.9658 22.2282 13.6608 21.9237 13.6414C21.9237 13.6414 22.0348 12.7943 21.3608 12.6603C21.011 12.5922 20.6353 12.6427 20.596 13.0526C20.3958 13.8777 20.0922 14.7787 19.3475 15.2453C19.6507 14.2886 18.5874 13.9293 18.3006 13.1709L18.3192 13.0115L19.1359 11.9868L19.3226 11.9449L19.6535 12.1284L19.8446 12.2338L20.4842 12.31L20.669 12.1528C19.9105 11.404 21.3047 11.0213 21.5624 10.5051L22.2058 11.1328C22.5734 11.577 21.1613 11.6999 20.9598 12.0737C20.9598 12.0737 22.0633 13.4393 23.163 12.1528L23.6159 11.7224C23.6159 11.2734 23.1726 10.8981 22.8918 10.5051C22.5489 9.93868 22.7729 9.23377 22.367 8.74458C21.3953 8.27234 21.0523 8.51164 21.0523 8.51164C21.0523 8.51164 21.0383 8.55825 21.0383 8.57589C21.0061 8.78093 20.9204 9.40203 21.0993 9.62551C21.106 9.69094 21.1248 9.74567 21.045 9.84006C20.6128 10.3596 20.5207 10.3793 20.4094 10.4491C19.4051 9.84306 20.8537 9.2133 20.714 8.54799C19.7343 8.08034 19.4612 8.65804 19.4612 8.65804C19.3475 8.84721 19.5091 9.93114 19.3225 10.0178C18.3941 10.4522 18.1926 9.90346 18.1614 9.74572C18.4373 9.50925 19.0636 9.54753 19.0636 9.05738C19.0438 8.63848 19.1048 8.15753 18.696 7.96115C18.1643 8.06549 17.5353 6.39348 16.5675 6.94301C16.4879 7.27462 16.1754 7.60073 16.2959 7.97344L16.5301 8.02075L17.3731 7.84201C17.771 8.09558 17.1461 8.37491 16.9671 8.62704C16.5046 9.11698 17.3919 9.39102 17.5736 9.7252C17.2924 9.89683 16.8698 9.88101 16.5675 9.88101C17.1519 8.92054 16.0575 8.60021 15.5417 7.94351C15.5417 7.94351 15.4591 7.85147 15.3608 7.96297C15.0887 8.26855 14.3143 8.34862 14.1297 8.12792L13.6901 7.59405H13.4237C12.7318 7.73286 12.6988 7.2457 12.1382 7.35287C11.885 7.53258 11.8063 7.43674 11.3918 7.68555C11.0222 7.8868 10.7944 7.55791 10.7944 7.55791C10.7944 7.55791 10.1269 7.96297 9.5147 8.49203C8.89772 9.0221 8.67943 9.2281 8.19244 9.71424C7.89339 10.0178 8.70623 10.7472 8.67174 11.0557C8.63526 11.364 7.64686 11.3302 7.26258 11.6443L7.25586 11.7292C8.14386 11.5546 7.91024 12.1186 9.92351 10.8935C10.2825 10.7557 11.0223 10.5227 11.2091 11.0557C11.3947 11.4069 11.5785 11.7701 11.6974 12.1501C12.17 12.9222 11.1903 13.5489 11.8765 14.3355C12.1849 14.7221 11.994 15.8214 11.5736 16.189C11.2268 16.8895 11.6462 17.6732 11.8371 17.7583C12.4224 18.5634 12.1964 19.6549 12.7813 20.4592C12.8619 20.554 12.9218 20.8108 13.1048 20.6535C13.1048 20.183 12.7813 19.7936 12.9022 19.3241C13.208 19.9743 13.9103 20.4485 13.7078 21.2332C13.7078 21.2332 13.4563 21.5292 13.9093 21.6202C14.3503 21.9542 14.5253 22.5282 15.6995 22.4147C15.6995 22.4147 15.9659 22.4319 16.0153 22.5988C16.0574 22.7627 16.8554 23.7065 17.8015 23.739C17.8015 23.739 17.9599 23.8189 17.992 24.2764C18.0199 24.7351 17.6158 25.2223 17.2219 25.5292C17.2219 25.5292 16.9406 25.8246 18.2191 27.4969C18.5827 27.6494 19.0438 27.6493 19.3063 27.9697C19.5744 28.2759 18.8168 28.8831 18.7655 29.3845C18.7477 29.5999 19.1264 29.8803 19.1047 30.0975C19.087 30.2919 19.0438 30.4543 18.9828 30.7325C18.834 31.4142 18.8835 32.4047 18.8667 32.5931C18.8528 32.7423 18.6801 33.0385 18.8226 33.0365C19.4492 33.1443 18.9043 33.605 18.8658 33.8966C18.966 34.6009 19.2893 35.1121 19.869 35.6214L20.1719 35.2986C20.276 35.1614 20.1138 35.033 19.869 34.8771C19.8899 34.541 20.3537 34.2328 20.0312 33.8966C20.3959 33.2283 20.3734 31.9585 21.5211 32.0566C21.5456 31.7218 21.1791 31.4875 21.1996 31.1918C21.1996 31.1918 21.7499 31.8403 22.6904 30.7096C22.8319 30.5382 22.7465 29.8717 22.7465 29.8717C22.8094 29.3768 24.1917 28.9059 24.1917 28.9059C24.693 28.6427 25.5389 26.4911 25.0159 25.9774L24.7711 25.8361Z" fill="#009482"/>
</g>
<mask id="mask3_6546_44047" style="mask-type:luminance" maskUnits="userSpaceOnUse" x="0" y="0" width="181" height="41">
<path d="M180.04 0.953857H0.647461V40.0461H180.04V0.953857Z" fill="white"/>
</mask>
<g mask="url(#mask3_6546_44047)">
<path d="M20.1751 7.51161C20.3333 8.02026 21.888 8.12278 22.4489 8.27372L22.6494 8.07798C22.043 7.29765 21.3238 7.00025 20.2849 6.73133C20.2849 6.73133 20.2155 6.71423 20.1939 6.70905C20.1236 6.7804 20.0579 7.03018 20.1751 7.51161Z" fill="#009482"/>
</g>
<mask id="mask4_6546_44047" style="mask-type:luminance" maskUnits="userSpaceOnUse" x="0" y="0" width="181" height="41">
<path d="M180.04 0.953857H0.647461V40.0461H180.04V0.953857Z" fill="white"/>
</mask>
<g mask="url(#mask4_6546_44047)">
<path d="M18.1978 7.11453L18.2952 7.24319C18.3283 7.30942 18.3695 7.3587 18.4138 7.39435L18.4208 7.40344C18.7193 7.63643 19.1775 7.28814 19.5901 7.33288C19.9321 7.15933 19.8497 6.41908 19.7081 6.3938C19.0408 6.30528 18.928 6.19277 17.9353 6.6293C17.9353 6.6293 17.8556 6.8538 18.1978 7.11453Z" fill="#009482"/>
</g>
<mask id="mask5_6546_44047" style="mask-type:luminance" maskUnits="userSpaceOnUse" x="0" y="0" width="181" height="41">
<path d="M180.04 0.953857H0.647461V40.0461H180.04V0.953857Z" fill="white"/>
</mask>
<g mask="url(#mask5_6546_44047)">
<path d="M28.2765 7.50347C27.9071 6.77044 27.5132 7.62469 27.1859 7.35803L26.7041 5.51107L25.4212 5.81943C24.8344 6.29996 24.0599 5.64892 24.0599 5.64892C24.012 5.62931 23.6237 4.53393 23.6136 4.35712C23.0134 4.70081 22.1642 5.73381 21.9238 6.23651C21.6003 5.84477 21.3409 5.21704 20.6768 5.53074V5.60878C21.0784 5.92201 21.2217 7.01738 21.8873 6.55075C22.1056 6.64846 22.31 6.80336 22.4491 6.98114C22.3253 7.08083 22.086 7.05731 22.0062 7.17843L22.9732 8.11741C23.723 7.84908 23.4947 7.17843 23.8172 6.74377C24.2811 6.68839 24.7254 6.52825 25.188 6.58785C25.3876 6.66605 25.6332 6.90011 25.5516 7.09922L24.6232 7.05726C24.4021 7.23519 24.5436 7.60876 24.5024 7.8044C24.6842 8.02077 24.2812 8.43063 24.7058 8.43063C25.8516 8.58612 25.4571 9.90781 25.4043 10.0942C25.1371 10.6733 24.9274 11.4578 24.8262 12.1529C24.8262 12.1529 24.8628 13.2964 24.9471 13.8368C24.9471 13.8368 25.4869 14.0361 26.029 13.4436L26.2632 13.1773C26.4388 12.9938 26.6758 12.6801 26.884 12.271C27.0943 11.9841 27.3136 11.9079 27.4099 11.8954C28.6167 12.2569 28.5746 11.4866 29.1138 11.2754C29.2759 11.304 29.2227 10.7238 29.168 10.5141C29.1315 10.3773 29.3094 10.2253 29.4324 10.139C30.1506 9.75772 30.3321 9.5251 29.999 8.76384C29.6708 8.38386 28.6139 8.30379 28.2765 7.50347Z" fill="#009482"/>
</g>
<mask id="mask6_6546_44047" style="mask-type:luminance" maskUnits="userSpaceOnUse" x="0" y="0" width="181" height="41">
<path d="M180.04 0.953857H0.647461V40.0461H180.04V0.953857Z" fill="white"/>
</mask>
<g mask="url(#mask6_6546_44047)">
<path d="M51.3313 27.0851C51.349 27.5931 51.1289 28.1414 51.2499 28.5284C51.4087 28.6294 51.6513 28.822 51.854 28.7628L52.5749 26.7744L52.2509 26.4587C51.791 26.3453 51.854 27.1461 51.3313 27.0851Z" fill="#009482"/>
</g>
<mask id="mask7_6546_44047" style="mask-type:luminance" maskUnits="userSpaceOnUse" x="0" y="0" width="181" height="41">
<path d="M180.04 0.953857H0.647461V40.0461H180.04V0.953857Z" fill="white"/>
</mask>
<g mask="url(#mask7_6546_44047)">
<path d="M55.0979 23.123H55.2178C55.6192 23.0277 55.4409 22.5758 55.5388 22.3032C55.4623 22.1841 55.321 22.204 55.2178 22.1487C55.1193 22.4405 55.0802 22.8313 55.0979 23.123Z" fill="#009482"/>
</g>
<mask id="mask8_6546_44047" style="mask-type:luminance" maskUnits="userSpaceOnUse" x="0" y="0" width="181" height="41">
<path d="M180.04 0.953857H0.647461V40.0461H180.04V0.953857Z" fill="white"/>
</mask>
<g mask="url(#mask8_6546_44047)">
<path d="M42.0442 15.4309C42.1257 15.4542 42.3862 15.3127 42.4754 15.2792C42.6349 15.2225 42.6238 15.3026 42.6238 15.3026L42.4155 15.8203L43.0682 15.543C43.0682 15.543 43.2856 15.4739 43.3868 15.3742C43.4879 15.2764 43.4879 15.2026 43.5024 15.0996C43.1395 14.7892 42.9217 14.477 42.8413 14.0466C42.6949 13.6406 42.4008 13.7206 42.2929 14.0962C42.2242 14.3013 42.4932 14.4476 42.56 14.7416C42.5338 14.682 42.4866 14.6263 42.4008 14.5815C42.3086 14.5472 42.2202 14.5329 42.1286 14.6186C42.0158 14.8188 41.8348 15.0958 41.8755 15.2402C41.9045 15.334 41.9597 15.4065 42.0442 15.4309Z" fill="#009482"/>
</g>
<mask id="mask9_6546_44047" style="mask-type:luminance" maskUnits="userSpaceOnUse" x="0" y="0" width="181" height="41">
<path d="M180.04 0.953857H0.647461V40.0461H180.04V0.953857Z" fill="white"/>
</mask>
<g mask="url(#mask9_6546_44047)">
<path d="M41.4977 11.9751L41.4146 11.7815C40.835 11.7425 40.3732 11.9966 39.8101 12.0179C39.87 12.251 40.1119 12.4221 40.2534 12.6395C40.7113 12.6024 41.1928 12.5827 41.5355 12.3664C41.4976 12.251 41.3981 12.0948 41.4977 11.9751Z" fill="#009482"/>
</g>
<mask id="mask10_6546_44047" style="mask-type:luminance" maskUnits="userSpaceOnUse" x="0" y="0" width="181" height="41">
<path d="M180.04 0.953857H0.647461V40.0461H180.04V0.953857Z" fill="white"/>
</mask>
<g mask="url(#mask10_6546_44047)">
<path d="M50.4045 9.71192C50.3838 9.57508 50.2645 9.47641 50.2045 9.36138C49.8025 8.50499 50.6857 8.05504 51.0485 7.44585C50.9876 7.27411 50.8676 7.15417 50.6857 7.09735C50.3838 7.3513 49.9037 7.56585 49.8455 7.99437C49.9037 8.56154 49.6045 9.12785 49.4839 9.63559C49.8025 9.77248 50.0846 9.71192 50.4045 9.71192Z" fill="#009482"/>
</g>
<mask id="mask11_6546_44047" style="mask-type:luminance" maskUnits="userSpaceOnUse" x="0" y="0" width="181" height="41">
<path d="M180.04 0.953857H0.647461V40.0461H180.04V0.953857Z" fill="white"/>
</mask>
<g mask="url(#mask11_6546_44047)">
<path d="M58.8273 22.5367C58.8359 22.5416 58.9659 22.7722 59.0825 23.1049C59.2654 23.5216 59.4078 23.2784 59.4078 22.9171C59.3697 22.4482 58.8772 22.4405 58.9569 21.9716L59.5185 22.3224C59.7369 22.1087 59.8608 21.8543 60.0418 21.6202C60.0988 21.1135 59.7972 20.7404 59.6776 20.2922C59.9527 20.1262 60.3239 20.104 60.6472 20.0414C60.9773 19.9762 61.2587 19.8746 61.5653 19.7498C61.5653 19.7498 61.902 19.2665 61.9751 19.0577C62.0454 18.8537 62.0866 18.184 62.0866 18.184C62.0788 18.1477 62.0153 17.9446 62.0031 17.9113C62.0031 17.9084 62.0005 17.9076 62.0005 17.9076V17.9056C61.7436 17.2877 61.1957 16.8866 61.398 16.3192C61.8588 16.1834 61.8099 16.3117 62.1673 16.5038C62.2608 16.617 62.6351 16.9369 62.4994 17.4938C62.5751 17.7388 62.6173 17.6496 62.6813 17.7111C62.6813 17.7111 63.0371 17.2826 63.0371 17.0065C63.0371 16.7339 62.488 16.0752 62.488 16.0752C62.7962 15.8908 62.9061 15.6428 62.9538 15.3745C63.0281 14.9642 62.9604 14.5037 63.2523 14.1619C63.491 14.437 63.5511 15.2768 64.0932 14.9047C63.6918 14.1062 63.5608 13.138 63.1846 12.7376L63.1537 12.7052H63.1511C62.9577 12.517 62.6874 12.3999 62.2883 12.406C62.308 11.9955 62.3884 11.6238 62.5282 11.2754C63.0498 11.0127 61.7656 10.5823 62.2403 10.1858C62.2149 10.1556 62.1871 10.1285 62.1576 10.0999H61.5147C60.4026 8.79764 61.8463 7.91265 60.1953 7.07555C59.9357 7.36777 59.7557 6.8649 59.3492 7.00361C58.845 7.07272 58.6041 6.35337 58.5442 6.06265L57.5719 5.70137C57.4076 5.68272 56.3697 5.4268 55.9375 5.38917C55.2155 5.28847 54.9923 6.61983 54.2975 6.59171C53.2176 6.66745 53.7775 7.95359 53.0545 8.46117L52.051 8.5414L51.7314 9.86875L50.8492 9.67135L50.7685 10.2602C50.2049 10.1205 50.024 10.6877 49.6055 10.8841C49.4217 10.7668 49.4632 10.4771 49.2006 10.4922C49.1228 11.0957 48.8182 11.6072 48.2001 11.8212C48.1401 11.6844 47.9367 11.7244 47.9574 11.5476L48.3997 11.1583C48.0175 10.4771 47.2549 10.1811 46.5128 10.1028C45.5291 10.9233 44.8874 11.7244 44.2656 12.7183C44.2009 13.1206 44.0445 13.5268 44.1024 13.9298H44.7873C45.0104 14.084 45.0104 14.3727 45.3073 14.4371C45.9707 14.613 45.6883 13.8679 45.8742 13.5771C45.6836 13.292 45.72 13.009 45.84 12.7377V12.733C45.9932 12.3971 46.2763 12.0739 46.4334 11.7811C46.4166 12.0962 46.2856 12.4117 46.2105 12.7377V12.7397C46.1767 12.8597 46.1578 12.9828 46.1512 13.1114C46.4749 13.2053 46.8162 13.2463 47.199 13.2259C47.2911 13.2138 47.3543 13.2826 47.3543 13.3431C46.574 13.2463 46.4334 14.1444 46.0708 14.5935L44.9474 14.7479C44.7273 14.6501 44.6881 14.2616 44.4261 14.2822L44.3453 14.9419C44.1544 15.031 43.9885 15.1745 43.8254 15.3256H43.8233C43.5965 15.5324 43.3113 15.7803 43.0225 15.8023C42.8808 15.9023 42.6805 16.0968 42.5377 16.1927C42.6205 16.4481 43.0225 16.4891 43.1817 16.7013C43.2615 17.4019 42.4948 17.1198 42.0733 17.2331L42.0566 17.3271V17.9382V18.0092V18.5344L43.3833 18.5746C43.4256 18.3864 43.4764 18.1965 43.5381 18.012C43.6327 17.7457 43.7509 17.4887 43.9021 17.249L44.7872 17.0897C45.0546 17.37 45.597 17.5874 45.7032 17.9672C45.7159 18.0345 45.7276 18.1479 45.7089 18.225C45.9008 18.1965 46.0617 18.1069 46.2151 18.0092C46.2881 17.9624 46.3605 17.9167 46.4333 17.8757C46.2721 17.3475 45.6311 17.1912 45.589 16.6593C46.0865 17.076 46.5807 17.4439 46.8282 17.9877C46.8567 18.0579 46.8969 18.1598 46.9147 18.225C47.0769 18.2447 47.2547 18.1841 47.3542 18.144L47.3187 18.0092L47.1989 17.5603C47.3158 17.4439 47.4966 17.4625 47.6347 17.4019L47.873 18.0092L47.9966 18.343L48.9615 18.4172C49.4048 18.3204 49.3009 18.8709 49.2832 19.0822C48.4194 19.8013 47.6978 18.5344 46.7124 19.0431C46.6937 19.1798 46.7536 19.3936 46.6719 19.4706C46.2517 19.2795 45.8299 18.9453 45.3515 18.9658L45.1892 18.343C44.3061 18.4173 43.3626 18.8291 42.4617 18.7318C41.5356 19.3524 41.1724 19.3905 40.8163 20.3687L40.7114 22.0945L41.6114 23.6332L43.1817 24.2348L44.0586 23.8849C44.4198 24.2948 45.8122 23.8649 45.2279 24.823C44.8975 25.0662 46.3456 26.9936 45.9932 28.1396C46.5356 28.8413 46.6938 29.6801 47.0113 30.4237L48.8574 30.0681C49.0629 29.5657 49.3617 29.0185 49.8854 28.5685C49.6622 27.8059 50.3679 27.438 50.7686 26.9307C51.0302 26.3017 50.4486 25.8755 50.6476 25.2891C51.1511 24.3548 52.9383 23.1165 52.3727 22.5588H52.1207C51.7541 22.4207 51.2111 22.473 50.9052 22.5168C50.3875 21.5196 48.9991 20.6722 49.2437 19.7071C49.9031 20.5092 50.4964 21.299 50.9947 22.1242C51.0392 22.2004 51.0844 22.2806 51.1283 22.3606C51.2158 22.3283 52.5915 21.8648 53.4988 20.7618L52.9727 20.2166L52.0932 20.4478C51.829 20.1571 51.6302 19.8014 51.5726 19.4707C52.2122 19.7501 52.7958 20.1571 53.537 20.1747C53.6666 20.3562 53.7836 20.933 53.8907 21.1252C53.9722 21.2686 54.0999 21.1546 54.1776 21.3001C54.2524 21.4462 54.4815 22.1395 54.5491 22.2633C54.6858 22.5206 54.8752 22.4501 55.0092 22.4026C55.2005 21.8886 55.4002 21.3995 55.6977 20.9524C55.8244 20.768 55.8964 20.6449 56.2508 20.5416C56.4719 20.5853 56.4438 20.115 56.6285 19.9801C56.7273 19.943 56.9112 19.8824 56.9897 20.0191C57.3713 20.35 57.2614 20.4057 57.4359 20.9191C57.5981 20.9572 57.6845 21.2804 57.9931 21.1537L58.5298 22.0402C58.5903 22.1841 58.6707 22.2546 58.8273 22.5367Z" fill="#009482"/>
</g>
<mask id="mask12_6546_44047" style="mask-type:luminance" maskUnits="userSpaceOnUse" x="0" y="0" width="181" height="41">
<path d="M180.04 0.953857H0.647461V40.0461H180.04V0.953857Z" fill="white"/>
</mask>
<g mask="url(#mask12_6546_44047)">
<path d="M63.413 28.209C63.471 28.0725 63.4247 27.9602 63.4119 27.8229C63.3989 27.6951 63.4308 27.5389 63.4009 27.411C63.3734 27.2834 63.3225 27.2404 63.2988 27.102C63.2713 26.9781 63.3048 26.8352 63.291 26.7094C63.2545 26.7188 63.2075 26.696 63.172 26.7027C63.1503 26.4864 63.1915 26.1545 63.081 25.9675C62.829 25.9963 63.0994 25.1744 63.0022 25.0343C62.961 25.024 62.8501 25.1859 62.8088 25.3498C62.7463 25.4699 62.6561 25.6816 62.6128 25.8495C62.5699 26.0325 62.4068 26.2918 62.3991 26.3072C62.327 26.3005 62.0654 26.0651 62.1197 25.8601C62.1471 25.7484 62.2926 25.4843 62.1629 25.3748C61.9408 25.1822 61.4278 25.4987 61.3377 25.6932C61.4181 25.7723 61.4326 25.8895 61.4543 25.9906C61.3069 26.004 61.0388 25.9783 60.9665 25.8895C60.7333 26.0545 60.7235 26.1107 60.4974 26.2842C60.3768 26.3787 60.2705 26.4978 60.1349 26.5531C59.9998 26.6083 59.8809 26.595 59.7552 26.6673C59.3998 26.8656 59.4989 27.1765 59.4785 27.4368C59.454 27.697 59.3153 28.0497 59.2433 28.2041C59.1786 28.3547 59.1223 28.4864 59.2846 28.6188C59.4598 28.7752 60.0383 28.3728 60.3094 28.2366C60.4562 28.1604 60.625 28.1269 60.7735 28.1203C60.9543 28.1185 61.0489 28.1297 61.1447 28.2404C61.2636 28.3728 61.3752 28.7084 61.3752 28.7084C61.4365 28.6693 61.4978 28.6371 61.5544 28.6102C61.5675 28.8809 61.4791 29.2223 61.7578 29.3596C61.9763 29.4692 62.3392 29.4186 62.5894 29.4092C62.6112 29.2472 62.5847 29.1461 62.6712 29.0011C62.7238 28.901 62.8249 28.8209 62.898 28.7437C63.0611 28.5751 63.3125 28.4329 63.413 28.209Z" fill="#009482"/>
</g>
<mask id="mask13_6546_44047" style="mask-type:luminance" maskUnits="userSpaceOnUse" x="0" y="0" width="181" height="41">
<path d="M180.04 0.953857H0.647461V40.0461H180.04V0.953857Z" fill="white"/>
</mask>
<g mask="url(#mask13_6546_44047)">
<path d="M63.479 29.8314C63.2652 29.9355 62.9071 29.8935 62.8257 30.1892C63.0093 30.4483 63.0759 30.0689 63.3768 30.045L63.6629 30.0078C63.6884 29.9249 63.9791 29.6018 63.9252 29.4359C63.7943 29.4693 63.4967 29.556 63.479 29.8314Z" fill="#009482"/>
</g>
<mask id="mask14_6546_44047" style="mask-type:luminance" maskUnits="userSpaceOnUse" x="0" y="0" width="181" height="41">
<path d="M180.04 0.953857H0.647461V40.0461H180.04V0.953857Z" fill="white"/>
</mask>
<g mask="url(#mask14_6546_44047)">
<path d="M64.3759 29.0564C64.3541 28.9896 64.3862 28.6752 64.2409 28.717C64.0851 28.7608 64.2804 29.1489 64.0251 29.1593C63.952 29.1842 63.6496 29.2156 63.9255 29.2946C64.2006 29.3729 64.1497 29.6359 64.2951 29.513C64.5381 29.308 64.6844 29.3824 64.6302 29.2013C64.5485 29.1612 64.4191 29.0871 64.3759 29.0564Z" fill="#009482"/>
</g>
<mask id="mask15_6546_44047" style="mask-type:luminance" maskUnits="userSpaceOnUse" x="0" y="0" width="181" height="41">
<path d="M180.04 0.953857H0.647461V40.0461H180.04V0.953857Z" fill="white"/>
</mask>
<g mask="url(#mask15_6546_44047)">
<path d="M58.4297 22.9272C58.4297 22.9264 58.4297 22.9264 58.4307 22.9254C58.4307 22.9176 58.4297 22.9117 58.4297 22.9038V22.9272Z" fill="#009482"/>
</g>
<mask id="mask16_6546_44047" style="mask-type:luminance" maskUnits="userSpaceOnUse" x="0" y="0" width="181" height="41">
<path d="M180.04 0.953857H0.647461V40.0461H180.04V0.953857Z" fill="white"/>
</mask>
<g mask="url(#mask16_6546_44047)">
<path d="M59.5112 24.4577C59.6087 24.5225 59.6442 24.5359 59.7766 24.5473C59.858 24.551 60.7535 24.6598 60.7818 24.5817C60.1767 24.5684 59.6844 24.2823 59.6011 24.248C59.5833 24.0658 59.5545 23.9791 59.4604 23.819C59.4482 23.7963 59.1672 23.4815 59.1145 23.4291C58.9061 23.2299 58.8659 23.1555 58.7792 23.0392C58.7162 22.9496 58.4599 22.6255 58.4304 22.9247C58.4227 23.1516 58.6241 23.249 58.8372 23.6017C58.9 23.6817 59.418 24.392 59.5112 24.4577Z" fill="#009482"/>
</g>
<mask id="mask17_6546_44047" style="mask-type:luminance" maskUnits="userSpaceOnUse" x="0" y="0" width="181" height="41">
<path d="M180.04 0.953857H0.647461V40.0461H180.04V0.953857Z" fill="white"/>
</mask>
<g mask="url(#mask17_6546_44047)">
<path d="M60.7818 22.8914C60.7141 22.8333 60.5773 22.9171 60.4949 22.9724C60.1354 23.2718 60.0467 23.3652 60.0467 23.3652C59.8664 23.4891 59.9576 23.6111 59.9662 23.7675C59.9911 24.0993 59.982 24.2498 60.5154 24.166C60.5154 23.8514 60.7053 23.4957 60.8762 23.3214C60.6691 23.1459 60.9007 23.0276 60.7818 22.8914Z" fill="#009482"/>
</g>
<mask id="mask18_6546_44047" style="mask-type:luminance" maskUnits="userSpaceOnUse" x="0" y="0" width="181" height="41">
<path d="M180.04 0.953857H0.647461V40.0461H180.04V0.953857Z" fill="white"/>
</mask>
<g mask="url(#mask18_6546_44047)">
<path d="M62.0375 24.1145C62.0629 24.166 62.3048 24.2012 62.3223 24.2613C62.4321 24.595 62.3843 25.0297 62.6416 24.9752C62.6808 24.9095 62.7458 24.8532 62.7361 24.8056C63.0838 24.7417 63.2765 25.2527 63.5734 25.1631C63.5633 25.0191 63.4159 24.8847 63.365 24.7589C63.3013 24.5949 63.2649 24.5224 63.1418 24.3776C63.0614 24.2794 62.722 24.2117 62.6055 24.1544C62.4932 24.0935 62.5917 23.9552 62.464 23.8971L62.1867 23.9496C62.1916 24.021 61.9942 24.0316 62.0375 24.1145Z" fill="#009482"/>
</g>
<mask id="mask19_6546_44047" style="mask-type:luminance" maskUnits="userSpaceOnUse" x="0" y="0" width="181" height="41">
<path d="M180.04 0.953857H0.647461V40.0461H180.04V0.953857Z" fill="white"/>
</mask>
<g mask="url(#mask19_6546_44047)">
<path d="M61.29 23.6244C61.3105 23.5472 61.2139 23.5273 61.1557 23.4548C61.0393 23.4719 61.0374 23.5234 60.9646 23.5634C60.9646 23.5634 60.9636 23.5979 60.9215 23.6779C60.8584 23.7932 60.7486 23.7826 60.7724 24.0468C60.786 24.1888 60.8829 24.2498 61.0011 24.3109C61.0011 24.3109 61.0965 24.2098 61.0856 24.0534C61.0246 23.9371 60.9991 23.7808 61.0189 23.7112C61.17 23.5988 61.2112 23.6674 61.29 23.6244Z" fill="#009482"/>
</g>
<mask id="mask20_6546_44047" style="mask-type:luminance" maskUnits="userSpaceOnUse" x="0" y="0" width="181" height="41">
<path d="M180.04 0.953857H0.647461V40.0461H180.04V0.953857Z" fill="white"/>
</mask>
<g mask="url(#mask20_6546_44047)">
<path d="M61.7098 21.756C61.7473 21.6826 61.6716 21.4691 61.6716 21.4691C61.6716 21.4691 61.3718 20.6793 61.292 20.6448C61.2155 20.6069 61.0591 20.6568 61.0487 20.7388C61.0386 20.8136 61.2273 21.2904 61.2273 21.2904C61.2273 21.2904 61.2135 21.633 61.2755 21.6913C61.3345 21.7484 61.575 21.9619 61.575 21.9619C61.575 21.9619 61.6716 21.8285 61.7098 21.756Z" fill="#009482"/>
</g>
<mask id="mask21_6546_44047" style="mask-type:luminance" maskUnits="userSpaceOnUse" x="0" y="0" width="181" height="41">
<path d="M180.04 0.953857H0.647461V40.0461H180.04V0.953857Z" fill="white"/>
</mask>
<g mask="url(#mask21_6546_44047)">
<path d="M61.672 22.8732C61.672 22.8732 61.7939 22.759 61.8439 22.6921C61.895 22.6292 61.9795 22.3814 61.9795 22.3814C61.9795 22.3814 61.9215 22.0229 61.6993 22.1487C61.4799 22.2745 61.3831 22.4805 61.43 22.5491C61.4783 22.615 61.672 22.8732 61.672 22.8732Z" fill="#009482"/>
</g>
<mask id="mask22_6546_44047" style="mask-type:luminance" maskUnits="userSpaceOnUse" x="0" y="0" width="181" height="41">
<path d="M180.04 0.953857H0.647461V40.0461H180.04V0.953857Z" fill="white"/>
</mask>
<g mask="url(#mask22_6546_44047)">
<path d="M61.6834 29.6398C61.5451 29.7199 61.4854 29.8457 61.5145 29.8878C61.543 29.9278 61.664 30.0861 61.664 30.0861C61.664 30.0861 61.7377 30.0174 61.7705 29.9775C61.8017 29.9355 61.8567 29.7821 61.8567 29.7821C61.8567 29.7821 61.8204 29.5598 61.6834 29.6398Z" fill="#009482"/>
</g>
<mask id="mask23_6546_44047" style="mask-type:luminance" maskUnits="userSpaceOnUse" x="0" y="0" width="181" height="41">
<path d="M180.04 0.953857H0.647461V40.0461H180.04V0.953857Z" fill="white"/>
</mask>
<g mask="url(#mask23_6546_44047)">
<path d="M64.7081 15.6743C64.6325 15.5423 64.5058 15.4594 64.4045 15.3521C64.3988 15.3579 64.3918 15.3679 64.3878 15.3764C64.3436 15.4556 64.2562 15.6086 64.2524 15.6987C64.2474 15.8402 64.3801 15.8607 64.3988 15.968C64.4468 16.2064 63.9995 16.5147 63.8061 16.6468C63.4838 16.8641 63.4245 16.824 63.3824 17.233C63.3652 17.3809 63.2473 18.0648 63.6637 17.7602C63.9515 17.5534 63.7207 17.2187 63.7749 16.9971L63.9703 16.8508C64.1848 16.796 64.2768 16.959 64.244 17.1367C64.3023 17.1367 64.3917 17.1249 64.4467 17.0957C64.5422 17.0515 64.7483 16.6377 64.7898 16.5333C64.8743 16.2826 64.8448 15.9037 64.7081 15.6743Z" fill="#009482"/>
</g>
<mask id="mask24_6546_44047" style="mask-type:luminance" maskUnits="userSpaceOnUse" x="0" y="0" width="181" height="41">
<path d="M180.04 0.953857H0.647461V40.0461H180.04V0.953857Z" fill="white"/>
</mask>
<g mask="url(#mask24_6546_44047)">
<path d="M147.378 5.67645L138.925 28.7705L132.497 5.69516H125.897L126.955 9.32711L119.865 28.7705L113.437 5.69516H106.837L115.917 36.5339H120.25L128.495 14.5155L134.978 36.5339H139.311L151.16 5.67645H147.378Z" fill="#004A97"/>
</g>
<mask id="mask25_6546_44047" style="mask-type:luminance" maskUnits="userSpaceOnUse" x="0" y="0" width="181" height="41">
<path d="M180.04 0.953857H0.647461V40.0461H180.04V0.953857Z" fill="white"/>
</mask>
<g mask="url(#mask25_6546_44047)">
<path d="M163.658 5.6159C161.424 6.25999 159.461 7.28235 157.775 8.68993C156.091 10.0817 154.742 11.8945 153.728 14.1309C152.728 16.3598 152.218 19.0834 152.218 22.3157C152.218 24.5122 152.605 26.5397 153.38 28.413C154.153 30.2978 155.273 31.9097 156.743 33.2794C158.214 34.646 160.008 35.7084 162.141 36.4601C164.259 37.2149 166.683 37.5963 169.406 37.5963C173.195 37.5963 176.329 36.9806 178.814 35.7584L179.767 32.0898L179.53 31.9499C179.05 32.4333 178.496 32.8793 177.865 33.2832C177.175 33.7333 176.443 34.1061 175.667 34.4103C174.889 34.7212 174.102 34.9556 173.302 35.1325C172.489 35.3084 171.696 35.4016 170.917 35.4016C169.526 35.4016 168.138 35.1386 166.767 34.6274C165.383 34.1134 164.149 33.2946 163.059 32.189C161.973 31.0686 161.094 29.6389 160.42 27.9049C159.742 26.1527 159.413 24.0516 159.413 21.6107C159.413 19.0776 159.736 16.8947 160.397 15.0518C161.054 13.2206 161.909 11.7015 162.985 10.5145C164.047 9.32429 165.244 8.4301 166.56 7.85427C167.874 7.27128 169.183 6.97778 170.496 6.97778C174.896 6.96014 176.826 9.23278 177.775 11.3482H178.535L180.04 6.78814C179.559 6.52259 178.988 6.271 178.324 6.03068C177.558 5.75044 176.761 5.51343 175.918 5.31043C175.075 5.10843 174.2 4.94835 173.292 4.82429C172.391 4.69595 171.537 4.63507 170.731 4.63507C168.262 4.63507 165.902 4.9639 163.658 5.6159Z" fill="#004A97"/>
</g>
<mask id="mask26_6546_44047" style="mask-type:luminance" maskUnits="userSpaceOnUse" x="0" y="0" width="181" height="41">
<path d="M180.04 0.953857H0.647461V40.0461H180.04V0.953857Z" fill="white"/>
</mask>
<g mask="url(#mask26_6546_44047)">
<path d="M102.154 22.7474L102.175 5.66754H98.8033V24.347C98.8003 27.6322 97.4119 35.0282 90.0506 35.0282C83.9299 35.0282 83.1302 29.1899 83.1302 21.59L83.149 5.66754H76.7871L76.7992 25.756C76.7992 31.5047 80.6579 37.5125 88.6833 37.5125C95.7595 37.5125 102.154 35.1101 102.154 22.7494" fill="#004A97"/>
</g>
<mask id="mask27_6546_44047" style="mask-type:luminance" maskUnits="userSpaceOnUse" x="0" y="0" width="181" height="41">
<path d="M180.04 0.953857H0.647461V40.0461H180.04V0.953857Z" fill="white"/>
</mask>
<g mask="url(#mask27_6546_44047)">
<path d="M50.4319 0.954834C39.5657 0.954834 30.7573 9.70527 30.7573 20.5C30.7573 23.7484 31.559 26.8085 32.9703 29.5044C33.5097 28.7592 33.9795 27.961 34.3792 27.1251C33.5181 25.0763 33.0407 22.8276 33.0407 20.4694C33.0407 10.9282 40.8261 3.19316 50.4319 3.19316C60.0364 3.19316 67.8228 10.9282 67.8228 20.4694C67.8228 30.0116 60.0364 37.7467 50.4319 37.7467C45.6022 37.7467 41.2393 35.7836 38.0879 32.6256C37.6476 33.2608 37.1728 33.8704 36.6676 34.4523C40.2163 37.9085 45.0705 40.046 50.4319 40.046C61.2968 40.046 70.1065 31.2956 70.1065 20.4999C70.1064 9.70527 61.2968 0.954834 50.4319 0.954834Z" fill="#004A97"/>
</g>
<mask id="mask28_6546_44047" style="mask-type:luminance" maskUnits="userSpaceOnUse" x="0" y="0" width="181" height="41">
<path d="M180.04 0.953857H0.647461V40.0461H180.04V0.953857Z" fill="white"/>
</mask>
<g mask="url(#mask28_6546_44047)">
<path d="M37.7813 11.4927C37.248 12.2296 36.7839 13.0194 36.3862 13.844C37.2399 15.8855 37.713 18.1229 37.713 20.4695C37.713 30.0117 29.927 37.7468 20.3216 37.7468C10.7173 37.7468 2.93083 30.0117 2.93083 20.4695C2.93083 10.9283 10.7173 3.19422 20.3216 3.19422C25.1711 3.19422 29.5488 5.17079 32.7031 8.35012C33.1355 7.72854 33.6003 7.12887 34.0955 6.55694C30.5464 3.09534 25.6879 0.954834 20.3216 0.954834C9.45635 0.954834 0.646973 9.70527 0.646973 20.501C0.646973 31.2949 9.45635 40.0461 20.3216 40.0461C31.1879 40.0461 39.9973 31.2949 39.9973 20.501C39.9973 17.2502 39.1946 14.1886 37.7813 11.4927Z" fill="#004A97"/>
</g>
</svg>